<?xml version="1.0" encoding="UTF-8" standalone="no"?>
<!DOCTYPE svg PUBLIC "-//W3C//DTD SVG 1.1//EN" "http://www.w3.org/Graphics/SVG/1.1/DTD/svg11.dtd">
<svg width="100%" height="100%" viewBox="0 0 325 325" version="1.1" xmlns="http://www.w3.org/2000/svg" xmlns:xlink="http://www.w3.org/1999/xlink" xml:space="preserve" xmlns:serif="http://www.serif.com/" style="fill-rule:evenodd;clip-rule:evenodd;stroke-linejoin:round;stroke-miterlimit:1.5;">
    <g transform="matrix(1,0,0,1,0,-18)">
        <g id="Artboard1" transform="matrix(0.646605,0,0,0.646605,-0.811654,19.2084)">
            <rect x="1.255" y="-1.869" width="502.625" height="502.625" style="fill:none;"/>
            <g transform="matrix(1.53846,0,0,1.53846,-143.026,-76.607)">
                <g transform="matrix(1.00525,0,0,1.00525,-532.414,80.4398)">
                    <ellipse cx="785.583" cy="63.031" rx="15.799" ry="19.101" style="fill:none;stroke:black;stroke-width:12.3px;"/>
                </g>
                <g transform="matrix(1.00525,0,0,1.00525,-643.828,80.6768)">
                    <ellipse cx="785.583" cy="63.031" rx="15.799" ry="19.101" style="fill:none;stroke:black;stroke-width:12.3px;"/>
                </g>
                <g transform="matrix(1.00525,0,0,1.00525,-527.12,77.9112)">
                    <path d="M633.343,226.007L714.649,226.007C714.649,226.007 654.59,182.038 661.591,152.807C668.592,123.576 710.794,142.417 718.947,147.526C724.77,151.174 768.526,179.792 768.812,226.007" style="fill:none;stroke:black;stroke-width:12.29px;stroke-linecap:square;"/>
                </g>
                <g transform="matrix(1.00525,0,0,1.00525,-530.281,73.1702)">
                    <path d="M726.518,69.19C734.754,69.19 743.712,64.236 751.419,66.649C762.539,70.132 771.057,82.489 771.057,92.898C771.057,110.522 746.636,118.95 726.518,118.95C706.399,118.95 683.314,111.458 683.314,93.833C683.314,82.853 692.276,70.392 703.897,66.778C710.929,64.591 718.934,69.19 726.518,69.19Z" style="fill:none;stroke:black;stroke-width:12.29px;stroke-linecap:square;stroke-linejoin:bevel;"/>
                </g>
                <g transform="matrix(1.00525,0,0,1.00525,-523.646,80.7917)">
                    <circle cx="701.022" cy="80.046" r="2.849" style="fill:none;stroke:black;stroke-width:5.59px;stroke-linecap:square;stroke-linejoin:bevel;"/>
                </g>
                <g transform="matrix(1.00525,0,0,1.00525,-481.332,80.7917)">
                    <circle cx="701.022" cy="80.046" r="2.849" style="fill:none;stroke:black;stroke-width:5.59px;stroke-linecap:square;stroke-linejoin:bevel;"/>
                </g>
                <g transform="matrix(0.82698,0,0,1.31098,-397.48,52.1986)">
                    <path d="M745.501,71.242C741.345,72.038 733.173,76.803 731.863,79.451C730.5,82.208 730.627,88.336 730.627,88.336L715.99,88.336C715.99,88.336 716.122,82.145 714.746,79.388C713.415,76.723 709.022,72.538 704.835,71.519C697.677,69.776 749.958,70.388 745.501,71.242Z"/>
                    <path d="M745.501,71.242C741.345,72.038 733.173,76.803 731.863,79.451C730.5,82.208 730.627,88.336 730.627,88.336L715.99,88.336C715.99,88.336 716.122,82.145 714.746,79.388C713.415,76.723 709.022,72.538 704.835,71.519C697.677,69.776 749.958,70.388 745.501,71.242ZM718.95,74.865C719.957,76.01 720.744,77.135 721.226,78.1C721.972,79.594 722.361,81.962 722.563,84.05L724.056,84.05C724.258,81.989 724.643,79.659 725.377,78.175C725.849,77.22 726.909,76.03 728.354,74.794C725.245,74.798 721.978,74.827 718.95,74.865Z"/>
                </g>
                <g transform="matrix(1.00525,0,0,0.9723,-527.12,78.5673)">
                    <path d="M725.068,19.911C746.542,19.911 772.371,31.517 770.844,42.101C768.128,60.915 761.88,61.089 749.953,61.037C742.222,61.004 733.513,62.883 725.068,62.883C717.043,62.883 708.627,60.68 701.094,60.7C688.468,60.735 680.711,60.756 679.037,42.101C678.082,31.45 703.593,19.911 725.068,19.911Z" style="fill:none;stroke:black;stroke-width:12.5px;"/>
                </g>
                <g transform="matrix(1.00525,0,0,1.00525,-527.12,77.9112)">
                    <path d="M724.365,113.58C751.609,149.515 808.676,152.108 806.097,221.385C803.517,290.663 940.337,233.856 858.417,113.067C776.497,-7.721 969.543,-15.895 918.132,84.516" style="fill:none;stroke:black;stroke-width:12.3px;"/>
                </g>
            </g>
        </g>
    </g>
</svg>
